<mxfile host="Electron" agent="Mozilla/5.0 (Macintosh; Intel Mac OS X 10_15_7) AppleWebKit/537.36 (KHTML, like Gecko) draw.io/26.2.15 Chrome/134.0.6998.205 Electron/35.2.1 Safari/537.36" version="26.2.15">
  <diagram name="intro" id="58wyMpoo7qkwxyLGm7Lu">
    <mxGraphModel dx="2226" dy="459" grid="0" gridSize="10" guides="1" tooltips="1" connect="1" arrows="1" fold="1" page="0" pageScale="1" pageWidth="2339" pageHeight="3300" math="1" shadow="0">
      <root>
        <mxCell id="0" />
        <mxCell id="1" parent="0" />
        <mxCell id="mep1rdiSKTlPo74-6oAJ-1" value="" style="rounded=0;whiteSpace=wrap;html=1;fillColor=#f5f5f5;fontColor=#333333;strokeColor=#000000;strokeWidth=2;" parent="1" vertex="1">
          <mxGeometry x="-402.29" y="613.75" width="288.29" height="77.06" as="geometry" />
        </mxCell>
        <mxCell id="mep1rdiSKTlPo74-6oAJ-2" value="&lt;font face=&quot;Georgia&quot;&gt;Existing FHE-based OLAP Systems&lt;/font&gt;" style="text;html=1;strokeColor=none;fillColor=none;align=center;verticalAlign=middle;whiteSpace=wrap;rounded=0;" parent="1" vertex="1">
          <mxGeometry x="-398.75" y="587.35" width="271.75" height="19.81" as="geometry" />
        </mxCell>
        <mxCell id="mep1rdiSKTlPo74-6oAJ-87" style="edgeStyle=orthogonalEdgeStyle;rounded=0;orthogonalLoop=1;jettySize=auto;html=1;exitX=1;exitY=0.5;exitDx=0;exitDy=0;entryX=0;entryY=0.5;entryDx=0;entryDy=0;endSize=2;" parent="1" source="mep1rdiSKTlPo74-6oAJ-4" target="mep1rdiSKTlPo74-6oAJ-23" edge="1">
          <mxGeometry relative="1" as="geometry" />
        </mxCell>
        <mxCell id="mep1rdiSKTlPo74-6oAJ-4" value="" style="rounded=0;whiteSpace=wrap;html=1;strokeWidth=2;" parent="1" vertex="1">
          <mxGeometry x="-379" y="644.74" width="153" height="37.93" as="geometry" />
        </mxCell>
        <mxCell id="mep1rdiSKTlPo74-6oAJ-5" value="&lt;font&gt;&lt;b style=&quot;&quot;&gt;&lt;i style=&quot;&quot;&gt;2. Filter Generation&lt;/i&gt;&lt;/b&gt;&lt;/font&gt;" style="text;html=1;strokeColor=none;fillColor=none;align=center;verticalAlign=middle;whiteSpace=wrap;rounded=0;" parent="1" vertex="1">
          <mxGeometry x="-396.0043062203963" y="614.5228263290808" width="181.11923363979727" height="26.41876993703975" as="geometry" />
        </mxCell>
        <mxCell id="mep1rdiSKTlPo74-6oAJ-6" value="&lt;font&gt;&lt;b style=&quot;&quot;&gt;&lt;i style=&quot;&quot;&gt;3. Aggregation&lt;/i&gt;&lt;/b&gt;&lt;/font&gt;" style="text;html=1;strokeColor=none;fillColor=none;align=center;verticalAlign=middle;whiteSpace=wrap;rounded=0;" parent="1" vertex="1">
          <mxGeometry x="-230.8385201748655" y="614.5098623213663" width="127.6366011758203" height="26.429247124433555" as="geometry" />
        </mxCell>
        <mxCell id="mep1rdiSKTlPo74-6oAJ-7" style="rounded=0;orthogonalLoop=1;jettySize=auto;html=1;endSize=2;strokeWidth=2;" parent="1" edge="1">
          <mxGeometry relative="1" as="geometry">
            <mxPoint x="-480" y="645" as="sourcePoint" />
            <mxPoint x="-408.7026782573739" y="645.1408678982223" as="targetPoint" />
          </mxGeometry>
        </mxCell>
        <mxCell id="mep1rdiSKTlPo74-6oAJ-8" value="&lt;font&gt;1. Request&lt;/font&gt;" style="text;html=1;strokeColor=none;fillColor=none;align=center;verticalAlign=middle;whiteSpace=wrap;rounded=0;fontFamily=Georgia;" parent="1" vertex="1">
          <mxGeometry x="-481" y="618.13" width="71" height="17.55" as="geometry" />
        </mxCell>
        <mxCell id="mep1rdiSKTlPo74-6oAJ-20" value="&lt;font&gt;User&lt;/font&gt;" style="text;html=1;strokeColor=none;fillColor=none;align=center;verticalAlign=middle;whiteSpace=wrap;rounded=0;fontFamily=Georgia;" parent="1" vertex="1">
          <mxGeometry x="-537.8894913092385" y="616.1259821267059" width="47.09100074634729" height="20.650671834119404" as="geometry" />
        </mxCell>
        <mxCell id="mep1rdiSKTlPo74-6oAJ-21" value="" style="points=[[0.35,0,0],[0.98,0.51,0],[1,0.71,0],[0.67,1,0],[0,0.795,0],[0,0.65,0]];verticalLabelPosition=bottom;sketch=0;html=1;verticalAlign=top;aspect=fixed;align=center;pointerEvents=1;shape=mxgraph.cisco19.user;fillColor=#000000;strokeColor=none;" parent="1" vertex="1">
          <mxGeometry x="-537.8879453293804" y="640.9368612757055" width="47.09185035629102" height="47.09185035629102" as="geometry" />
        </mxCell>
        <mxCell id="mep1rdiSKTlPo74-6oAJ-22" style="rounded=0;orthogonalLoop=1;jettySize=auto;html=1;endSize=2;startArrow=classic;startFill=1;endArrow=none;endFill=0;startSize=2;strokeWidth=2;" parent="1" edge="1">
          <mxGeometry relative="1" as="geometry">
            <mxPoint x="-481" y="662" as="sourcePoint" />
            <mxPoint x="-411.0451736093663" y="661.5997107005923" as="targetPoint" />
          </mxGeometry>
        </mxCell>
        <mxCell id="mep1rdiSKTlPo74-6oAJ-23" value="" style="rounded=0;whiteSpace=wrap;html=1;strokeWidth=2;" parent="1" vertex="1">
          <mxGeometry x="-206.72" y="644.17" width="84.72" height="37.5" as="geometry" />
        </mxCell>
        <mxCell id="mep1rdiSKTlPo74-6oAJ-82" value="" style="shape=image;verticalLabelPosition=bottom;verticalAlign=top;imageAspect=0;image=https://creazilla-store.fra1.digitaloceanspaces.com/emojis/44806/angry-face-with-horns-emoji-clipart-md.png" parent="1" vertex="1">
          <mxGeometry x="-136.00003818903565" y="592.0370843499478" width="43.24003818903572" height="43.63965318926447" as="geometry" />
        </mxCell>
        <mxCell id="mep1rdiSKTlPo74-6oAJ-86" value="&lt;font&gt;4. Response&lt;/font&gt;" style="text;html=1;strokeColor=none;fillColor=none;align=center;verticalAlign=middle;whiteSpace=wrap;rounded=0;fontFamily=Georgia;" parent="1" vertex="1">
          <mxGeometry x="-481" y="665.65" width="72" height="17.55" as="geometry" />
        </mxCell>
        <mxCell id="mep1rdiSKTlPo74-6oAJ-88" value="" style="group" parent="1" vertex="1" connectable="0">
          <mxGeometry x="-201.99539721622025" y="649.8076699198325" width="74.09316114768102" height="27.799229696758406" as="geometry" />
        </mxCell>
        <mxCell id="mep1rdiSKTlPo74-6oAJ-31" value="" style="verticalLabelPosition=bottom;shadow=0;dashed=0;align=center;html=1;verticalAlign=top;shape=mxgraph.electrical.abstract.filter;" parent="mep1rdiSKTlPo74-6oAJ-88" vertex="1">
          <mxGeometry width="19.063420535423973" height="26.802444568188974" as="geometry" />
        </mxCell>
        <mxCell id="mep1rdiSKTlPo74-6oAJ-32" value="" style="shape=sumEllipse;perimeter=ellipsePerimeter;whiteSpace=wrap;html=1;backgroundOutline=1;" parent="mep1rdiSKTlPo74-6oAJ-88" vertex="1">
          <mxGeometry x="29.79" y="6.4" width="14.51" height="14.01" as="geometry" />
        </mxCell>
        <mxCell id="mep1rdiSKTlPo74-6oAJ-33" value="" style="rounded=0;whiteSpace=wrap;html=1;fillColor=#f8cecc;strokeColor=#b85450;glass=0;shadow=0;fillStyle=auto;" parent="mep1rdiSKTlPo74-6oAJ-88" vertex="1">
          <mxGeometry x="55.029740612257044" width="19.063420535423973" height="9.414081769818441" as="geometry" />
        </mxCell>
        <mxCell id="mep1rdiSKTlPo74-6oAJ-34" value="" style="rounded=0;whiteSpace=wrap;html=1;fillColor=#f8cecc;strokeColor=#b85450;glass=0;shadow=0;fillStyle=auto;" parent="mep1rdiSKTlPo74-6oAJ-88" vertex="1">
          <mxGeometry x="55.029740612257044" y="9.192573963470181" width="19.063420535423973" height="9.414081769818441" as="geometry" />
        </mxCell>
        <mxCell id="mep1rdiSKTlPo74-6oAJ-35" value="" style="rounded=0;whiteSpace=wrap;html=1;fillColor=#f8cecc;strokeColor=#b85450;glass=0;shadow=0;fillStyle=auto;" parent="mep1rdiSKTlPo74-6oAJ-88" vertex="1">
          <mxGeometry x="55.029740612257044" y="18.385147926939958" width="19.063420535423973" height="9.414081769818441" as="geometry" />
        </mxCell>
        <mxCell id="mep1rdiSKTlPo74-6oAJ-91" value="" style="rounded=0;whiteSpace=wrap;html=1;fillColor=#f5f5f5;fontColor=#333333;strokeColor=#000000;strokeWidth=2;" parent="1" vertex="1">
          <mxGeometry x="-402.29" y="690.81" width="288.29" height="24.19" as="geometry" />
        </mxCell>
        <mxCell id="mep1rdiSKTlPo74-6oAJ-69" value="&lt;font&gt;&lt;i style=&quot;&quot;&gt;CPU library (e.g., SEAL)&lt;/i&gt;&lt;/font&gt;" style="text;html=1;strokeColor=none;fillColor=none;align=center;verticalAlign=middle;whiteSpace=wrap;rounded=0;horizontal=1;fontFamily=Georgia;" parent="1" vertex="1">
          <mxGeometry x="-402" y="693.66" width="287" height="16.53" as="geometry" />
        </mxCell>
        <mxCell id="oA1RwpsSXMLqQ9cNHt5I-47" value="" style="group" parent="1" vertex="1" connectable="0">
          <mxGeometry x="-372.925631877795" y="650.8776699198326" width="142.08692477764936" height="27.00007319623535" as="geometry" />
        </mxCell>
        <mxCell id="mep1rdiSKTlPo74-6oAJ-25" value="" style="rounded=0;whiteSpace=wrap;html=1;fillColor=#ffe6cc;strokeColor=#d79b00;" parent="oA1RwpsSXMLqQ9cNHt5I-47" vertex="1">
          <mxGeometry y="5.132245318292348" width="28.63413362812588" height="16.735582559650037" as="geometry" />
        </mxCell>
        <mxCell id="mep1rdiSKTlPo74-6oAJ-26" value="" style="rounded=0;whiteSpace=wrap;html=1;fillColor=#ffe6cc;strokeColor=#d79b00;" parent="oA1RwpsSXMLqQ9cNHt5I-47" vertex="1">
          <mxGeometry x="41.059674175045245" y="5.132245318292348" width="28.63413362812588" height="16.735582559650037" as="geometry" />
        </mxCell>
        <mxCell id="mep1rdiSKTlPo74-6oAJ-24" style="edgeStyle=orthogonalEdgeStyle;rounded=0;orthogonalLoop=1;jettySize=auto;html=1;exitX=1;exitY=0.5;exitDx=0;exitDy=0;entryX=0;entryY=0.5;entryDx=0;entryDy=0;endSize=0;strokeWidth=2;" parent="oA1RwpsSXMLqQ9cNHt5I-47" source="mep1rdiSKTlPo74-6oAJ-25" target="mep1rdiSKTlPo74-6oAJ-26" edge="1">
          <mxGeometry relative="1" as="geometry" />
        </mxCell>
        <mxCell id="mep1rdiSKTlPo74-6oAJ-27" style="edgeStyle=orthogonalEdgeStyle;rounded=0;orthogonalLoop=1;jettySize=auto;html=1;exitX=1;exitY=0.5;exitDx=0;exitDy=0;entryX=0;entryY=0.5;entryDx=0;entryDy=0;endSize=0;strokeWidth=2;" parent="oA1RwpsSXMLqQ9cNHt5I-47" source="mep1rdiSKTlPo74-6oAJ-26" target="mep1rdiSKTlPo74-6oAJ-29" edge="1">
          <mxGeometry relative="1" as="geometry">
            <mxPoint x="78.69380780317113" y="13.66739242371375" as="sourcePoint" />
          </mxGeometry>
        </mxCell>
        <mxCell id="mep1rdiSKTlPo74-6oAJ-29" value="" style="rounded=0;whiteSpace=wrap;html=1;fillColor=#ffe6cc;strokeColor=#d79b00;" parent="oA1RwpsSXMLqQ9cNHt5I-47" vertex="1">
          <mxGeometry x="84.11934835009049" y="5.132245318292348" width="28.63413362812588" height="16.735582559650037" as="geometry" />
        </mxCell>
        <mxCell id="mep1rdiSKTlPo74-6oAJ-30" value="" style="verticalLabelPosition=bottom;shadow=0;dashed=0;align=center;html=1;verticalAlign=top;shape=mxgraph.electrical.abstract.filter;movable=1;resizable=1;rotatable=1;deletable=1;editable=1;locked=0;connectable=1;" parent="oA1RwpsSXMLqQ9cNHt5I-47" vertex="1">
          <mxGeometry x="124.92360791763383" width="17.163316860015517" height="27.00007319623539" as="geometry" />
        </mxCell>
        <mxCell id="mep1rdiSKTlPo74-6oAJ-28" style="edgeStyle=orthogonalEdgeStyle;rounded=0;orthogonalLoop=1;jettySize=auto;html=1;exitX=1;exitY=0.5;exitDx=0;exitDy=0;entryX=0;entryY=0.5;entryDx=0;entryDy=0;entryPerimeter=0;endSize=0;strokeWidth=2;" parent="oA1RwpsSXMLqQ9cNHt5I-47" source="mep1rdiSKTlPo74-6oAJ-29" target="mep1rdiSKTlPo74-6oAJ-30" edge="1">
          <mxGeometry relative="1" as="geometry" />
        </mxCell>
        <mxCell id="oA1RwpsSXMLqQ9cNHt5I-50" value="" style="group;verticalAlign=middle;" parent="1" vertex="1" connectable="0">
          <mxGeometry x="-252.9968448821667" y="724.845" width="146.7868448821667" height="18.090000000000032" as="geometry" />
        </mxCell>
        <mxCell id="mep1rdiSKTlPo74-6oAJ-14" value="" style="rounded=0;whiteSpace=wrap;html=1;fillColor=#f8cecc;strokeColor=#b85450;" parent="oA1RwpsSXMLqQ9cNHt5I-50" vertex="1">
          <mxGeometry y="0.0006483095153271279" width="25.687151399427165" height="17.838314743813143" as="geometry" />
        </mxCell>
        <mxCell id="mep1rdiSKTlPo74-6oAJ-15" value="&lt;p style=&quot;line-height: 100%;&quot;&gt;&lt;font style=&quot;&quot;&gt;&lt;font face=&quot;Georgia&quot;&gt;FHE-encrypted Data&lt;/font&gt;&lt;br&gt;&lt;/font&gt;&lt;/p&gt;" style="text;html=1;strokeColor=none;fillColor=none;align=center;verticalAlign=middle;whiteSpace=wrap;rounded=0;" parent="oA1RwpsSXMLqQ9cNHt5I-50" vertex="1">
          <mxGeometry x="25.686844882166696" width="121.1" height="18.09" as="geometry" />
        </mxCell>
        <mxCell id="oA1RwpsSXMLqQ9cNHt5I-55" value="" style="rounded=0;whiteSpace=wrap;html=1;dashed=1;strokeWidth=2;strokeColor=light-dark(#ff0000, #ededed);fillColor=none;" parent="1" vertex="1">
          <mxGeometry x="-385" y="618.13" width="163" height="68.87" as="geometry" />
        </mxCell>
        <mxCell id="oA1RwpsSXMLqQ9cNHt5I-56" value="" style="endArrow=classic;html=1;rounded=0;exitX=1;exitY=0.5;exitDx=0;exitDy=0;strokeWidth=2;dashed=1;strokeColor=light-dark(#ff0000, #ededed);" parent="1" source="oA1RwpsSXMLqQ9cNHt5I-55" edge="1">
          <mxGeometry width="50" height="50" relative="1" as="geometry">
            <mxPoint x="-158" y="741" as="sourcePoint" />
            <mxPoint x="-71" y="666" as="targetPoint" />
          </mxGeometry>
        </mxCell>
        <mxCell id="oA1RwpsSXMLqQ9cNHt5I-58" value="" style="group" parent="1" vertex="1" connectable="0">
          <mxGeometry x="-448" y="724.57" width="126" height="19.980000000000018" as="geometry" />
        </mxCell>
        <mxCell id="mep1rdiSKTlPo74-6oAJ-11" value="&lt;p style=&quot;text-align: left; line-height: 100%;&quot;&gt;&lt;font style=&quot;&quot;&gt;&lt;font face=&quot;Georgia&quot;&gt;FHE Comparison&lt;/font&gt;&lt;br&gt;&lt;/font&gt;&lt;/p&gt;" style="text;html=1;strokeColor=none;fillColor=none;align=center;verticalAlign=middle;whiteSpace=wrap;rounded=0;" parent="oA1RwpsSXMLqQ9cNHt5I-58" vertex="1">
          <mxGeometry x="25.69" width="100.31" height="19.98" as="geometry" />
        </mxCell>
        <mxCell id="mep1rdiSKTlPo74-6oAJ-75" value="" style="rounded=0;whiteSpace=wrap;html=1;fillColor=#ffe6cc;strokeColor=#d79b00;" parent="oA1RwpsSXMLqQ9cNHt5I-58" vertex="1">
          <mxGeometry y="1.4252178459395282" width="25.687151399427165" height="17.124782154060618" as="geometry" />
        </mxCell>
        <mxCell id="oA1RwpsSXMLqQ9cNHt5I-59" value="" style="group" parent="1" vertex="1" connectable="0">
          <mxGeometry x="-315" y="724.84" width="62.53000000000003" height="20.12000000000012" as="geometry" />
        </mxCell>
        <mxCell id="mep1rdiSKTlPo74-6oAJ-12" value="" style="verticalLabelPosition=bottom;shadow=0;dashed=0;align=center;html=1;verticalAlign=top;shape=mxgraph.electrical.abstract.filter;" parent="oA1RwpsSXMLqQ9cNHt5I-59" vertex="1">
          <mxGeometry y="0.14108748692945028" width="24.97361941610974" height="19.97891251307072" as="geometry" />
        </mxCell>
        <mxCell id="mep1rdiSKTlPo74-6oAJ-13" value="&lt;font face=&quot;Georgia&quot;&gt;Filter&lt;/font&gt;" style="text;html=1;strokeColor=none;fillColor=none;align=center;verticalAlign=middle;whiteSpace=wrap;rounded=0;" parent="oA1RwpsSXMLqQ9cNHt5I-59" vertex="1">
          <mxGeometry x="24.970000000000027" width="37.56" height="20.12" as="geometry" />
        </mxCell>
        <mxCell id="oA1RwpsSXMLqQ9cNHt5I-62" value="" style="group" parent="1" vertex="1" connectable="0">
          <mxGeometry x="-535" y="724.91" width="83.11000000000001" height="19.980000000000018" as="geometry" />
        </mxCell>
        <mxCell id="mep1rdiSKTlPo74-6oAJ-73" value="" style="rounded=0;whiteSpace=wrap;html=1;fillColor=#E8E8E8;strokeColor=#666666;fontColor=#333333;container=0;" parent="oA1RwpsSXMLqQ9cNHt5I-62" vertex="1">
          <mxGeometry y="1.08521784593961" width="25.687151399427165" height="17.124782154060618" as="geometry" />
        </mxCell>
        <mxCell id="mep1rdiSKTlPo74-6oAJ-74" value="&lt;p style=&quot;text-align: left; line-height: 100%;&quot;&gt;&lt;font style=&quot;&quot;&gt;&lt;font face=&quot;Georgia&quot;&gt;Untrusted&lt;/font&gt;&lt;br&gt;&lt;/font&gt;&lt;/p&gt;" style="text;html=1;strokeColor=none;fillColor=none;align=center;verticalAlign=middle;whiteSpace=wrap;rounded=0;container=0;" parent="oA1RwpsSXMLqQ9cNHt5I-62" vertex="1">
          <mxGeometry x="27.110000000000014" width="56" height="19.98" as="geometry" />
        </mxCell>
        <mxCell id="oA1RwpsSXMLqQ9cNHt5I-8" value="&lt;font face=&quot;Georgia&quot;&gt;Record&lt;/font&gt;&lt;div&gt;&lt;font face=&quot;Georgia&quot;&gt;size = N&lt;/font&gt;&lt;/div&gt;" style="text;html=1;align=center;verticalAlign=middle;whiteSpace=wrap;rounded=0;" parent="1" vertex="1">
          <mxGeometry x="-70.39" y="573" width="60" height="30" as="geometry" />
        </mxCell>
        <mxCell id="oA1RwpsSXMLqQ9cNHt5I-9" value="&lt;font face=&quot;Georgia&quot;&gt;Predicates&lt;/font&gt;&lt;div&gt;&lt;font face=&quot;Georgia&quot;&gt;size = M&lt;/font&gt;&lt;/div&gt;" style="text;html=1;align=center;verticalAlign=middle;whiteSpace=wrap;rounded=0;" parent="1" vertex="1">
          <mxGeometry x="-2.1400000000000006" y="573" width="85" height="30" as="geometry" />
        </mxCell>
        <mxCell id="oA1RwpsSXMLqQ9cNHt5I-10" value="&lt;font face=&quot;Georgia&quot;&gt;Filters&lt;/font&gt;&lt;div&gt;&lt;font face=&quot;Georgia&quot;&gt;size = N&lt;span style=&quot;background-color: transparent;&quot;&gt;×&lt;/span&gt;&lt;span style=&quot;background-color: transparent; color: light-dark(rgb(0, 0, 0), rgb(255, 255, 255));&quot;&gt;M&lt;/span&gt;&lt;/font&gt;&lt;/div&gt;" style="text;html=1;align=center;verticalAlign=middle;whiteSpace=wrap;rounded=0;" parent="1" vertex="1">
          <mxGeometry x="87.99999999999999" y="573" width="85" height="30" as="geometry" />
        </mxCell>
        <mxCell id="oA1RwpsSXMLqQ9cNHt5I-63" value="" style="group" parent="1" vertex="1" connectable="0">
          <mxGeometry x="-62" y="606.16" width="219" height="139.82" as="geometry" />
        </mxCell>
        <mxCell id="oA1RwpsSXMLqQ9cNHt5I-1" value="" style="curved=1;endArrow=classic;html=1;rounded=0;exitX=1;exitY=0.5;exitDx=0;exitDy=0;entryX=0;entryY=0.5;entryDx=0;entryDy=0;fillColor=#f8cecc;strokeColor=#B84F3F;dashed=1;strokeWidth=1.5;" parent="oA1RwpsSXMLqQ9cNHt5I-63" source="oA1RwpsSXMLqQ9cNHt5I-15" target="oA1RwpsSXMLqQ9cNHt5I-22" edge="1">
          <mxGeometry width="50" height="50" relative="1" as="geometry">
            <mxPoint x="51.68141592920354" y="73.79388888888882" as="sourcePoint" />
            <mxPoint x="161.50442477876106" y="66.02611111111106" as="targetPoint" />
            <Array as="points">
              <mxPoint x="116.28318584070796" y="46.60666666666663" />
            </Array>
          </mxGeometry>
        </mxCell>
        <mxCell id="oA1RwpsSXMLqQ9cNHt5I-2" value="" style="curved=1;endArrow=classic;html=1;rounded=0;exitX=1;exitY=0.5;exitDx=0;exitDy=0;entryX=0;entryY=0.5;entryDx=0;entryDy=0;fillColor=#f8cecc;strokeColor=#B84F3F;dashed=1;strokeWidth=1.5;" parent="oA1RwpsSXMLqQ9cNHt5I-63" source="oA1RwpsSXMLqQ9cNHt5I-16" target="oA1RwpsSXMLqQ9cNHt5I-23" edge="1">
          <mxGeometry width="50" height="50" relative="1" as="geometry">
            <mxPoint x="51.68141592920354" y="97.09722222222224" as="sourcePoint" />
            <mxPoint x="161.50442477876106" y="89.32944444444439" as="targetPoint" />
            <Array as="points">
              <mxPoint x="116.28318584070796" y="38.83888888888889" />
            </Array>
          </mxGeometry>
        </mxCell>
        <mxCell id="oA1RwpsSXMLqQ9cNHt5I-3" value="" style="curved=1;endArrow=classic;html=1;rounded=0;exitX=1;exitY=0.5;exitDx=0;exitDy=0;entryX=0;entryY=0.5;entryDx=0;entryDy=0;fillColor=#f8cecc;strokeColor=#B84F3F;dashed=1;strokeWidth=1.5;" parent="oA1RwpsSXMLqQ9cNHt5I-63" source="oA1RwpsSXMLqQ9cNHt5I-13" target="oA1RwpsSXMLqQ9cNHt5I-20" edge="1">
          <mxGeometry width="50" height="50" relative="1" as="geometry">
            <mxPoint x="48.451327433628315" y="44.664722222222196" as="sourcePoint" />
            <mxPoint x="158.27433628318585" y="36.89694444444446" as="targetPoint" />
            <Array as="points">
              <mxPoint x="109.82300884955755" y="62.14222222222221" />
            </Array>
          </mxGeometry>
        </mxCell>
        <mxCell id="oA1RwpsSXMLqQ9cNHt5I-4" value="" style="curved=1;endArrow=classic;html=1;rounded=0;exitX=1;exitY=0.5;exitDx=0;exitDy=0;entryX=0;entryY=0.5;entryDx=0;entryDy=0;fillColor=#f8cecc;strokeColor=#B84F3F;dashed=1;strokeWidth=1.5;" parent="oA1RwpsSXMLqQ9cNHt5I-63" source="oA1RwpsSXMLqQ9cNHt5I-14" target="oA1RwpsSXMLqQ9cNHt5I-21" edge="1">
          <mxGeometry width="50" height="50" relative="1" as="geometry">
            <mxPoint x="48.451327433628315" y="67.96805555555551" as="sourcePoint" />
            <mxPoint x="158.27433628318585" y="60.20027777777778" as="targetPoint" />
            <Array as="points" />
          </mxGeometry>
        </mxCell>
        <mxCell id="oA1RwpsSXMLqQ9cNHt5I-5" value="" style="curved=1;endArrow=classic;html=1;rounded=0;exitX=1;exitY=0.5;exitDx=0;exitDy=0;entryX=0;entryY=0.5;entryDx=0;entryDy=0;fillColor=#f8cecc;strokeColor=#B84F3F;dashed=1;strokeWidth=1.5;" parent="oA1RwpsSXMLqQ9cNHt5I-63" source="oA1RwpsSXMLqQ9cNHt5I-12" target="oA1RwpsSXMLqQ9cNHt5I-19" edge="1">
          <mxGeometry width="50" height="50" relative="1" as="geometry">
            <mxPoint x="129.20353982300884" y="163.1233333333332" as="sourcePoint" />
            <mxPoint x="161.50442477876106" y="124.28444444444442" as="targetPoint" />
            <Array as="points">
              <mxPoint x="109.82300884955755" y="69.90999999999994" />
            </Array>
          </mxGeometry>
        </mxCell>
        <mxCell id="oA1RwpsSXMLqQ9cNHt5I-6" value="" style="rounded=0;whiteSpace=wrap;html=1;" parent="oA1RwpsSXMLqQ9cNHt5I-63" vertex="1">
          <mxGeometry x="74.2920353982301" y="36.89694444444446" width="45.2212389380531" height="23.303333333333317" as="geometry" />
        </mxCell>
        <mxCell id="oA1RwpsSXMLqQ9cNHt5I-7" value="" style="rounded=0;whiteSpace=wrap;html=1;" parent="oA1RwpsSXMLqQ9cNHt5I-63" vertex="1">
          <mxGeometry x="80.75221238938052" y="43.11116666666665" width="45.2212389380531" height="23.303333333333317" as="geometry" />
        </mxCell>
        <mxCell id="oA1RwpsSXMLqQ9cNHt5I-11" value="" style="group" parent="oA1RwpsSXMLqQ9cNHt5I-63" vertex="1" connectable="0">
          <mxGeometry y="7.767777777777736" width="45.2212389380531" height="116.5166666666666" as="geometry" />
        </mxCell>
        <mxCell id="oA1RwpsSXMLqQ9cNHt5I-12" value="" style="rounded=0;whiteSpace=wrap;html=1;" parent="oA1RwpsSXMLqQ9cNHt5I-11" vertex="1">
          <mxGeometry width="45.2212389380531" height="23.303333333333317" as="geometry" />
        </mxCell>
        <mxCell id="oA1RwpsSXMLqQ9cNHt5I-13" value="" style="rounded=0;whiteSpace=wrap;html=1;" parent="oA1RwpsSXMLqQ9cNHt5I-11" vertex="1">
          <mxGeometry y="23.303333333333317" width="45.2212389380531" height="23.303333333333317" as="geometry" />
        </mxCell>
        <mxCell id="oA1RwpsSXMLqQ9cNHt5I-14" value="" style="rounded=0;whiteSpace=wrap;html=1;" parent="oA1RwpsSXMLqQ9cNHt5I-11" vertex="1">
          <mxGeometry y="46.606666666666634" width="45.2212389380531" height="23.303333333333317" as="geometry" />
        </mxCell>
        <mxCell id="oA1RwpsSXMLqQ9cNHt5I-15" value="" style="rounded=0;whiteSpace=wrap;html=1;" parent="oA1RwpsSXMLqQ9cNHt5I-11" vertex="1">
          <mxGeometry y="69.90999999999997" width="45.2212389380531" height="23.303333333333317" as="geometry" />
        </mxCell>
        <mxCell id="oA1RwpsSXMLqQ9cNHt5I-16" value="" style="rounded=0;whiteSpace=wrap;html=1;" parent="oA1RwpsSXMLqQ9cNHt5I-11" vertex="1">
          <mxGeometry y="93.21333333333327" width="45.2212389380531" height="23.303333333333317" as="geometry" />
        </mxCell>
        <mxCell id="oA1RwpsSXMLqQ9cNHt5I-17" value="" style="group" parent="oA1RwpsSXMLqQ9cNHt5I-63" vertex="1" connectable="0">
          <mxGeometry x="155.04424778761063" width="63.95575221238939" height="139.81999999999994" as="geometry" />
        </mxCell>
        <mxCell id="oA1RwpsSXMLqQ9cNHt5I-18" value="" style="group" parent="oA1RwpsSXMLqQ9cNHt5I-17" vertex="1" connectable="0">
          <mxGeometry width="51.681415929203546" height="124.28444444444439" as="geometry" />
        </mxCell>
        <mxCell id="oA1RwpsSXMLqQ9cNHt5I-19" value="" style="rounded=0;whiteSpace=wrap;html=1;" parent="oA1RwpsSXMLqQ9cNHt5I-18" vertex="1">
          <mxGeometry width="45.2212389380531" height="23.303333333333324" as="geometry" />
        </mxCell>
        <mxCell id="oA1RwpsSXMLqQ9cNHt5I-20" value="" style="rounded=0;whiteSpace=wrap;html=1;" parent="oA1RwpsSXMLqQ9cNHt5I-18" vertex="1">
          <mxGeometry y="23.303333333333324" width="45.2212389380531" height="23.303333333333324" as="geometry" />
        </mxCell>
        <mxCell id="oA1RwpsSXMLqQ9cNHt5I-21" value="" style="rounded=0;whiteSpace=wrap;html=1;" parent="oA1RwpsSXMLqQ9cNHt5I-18" vertex="1">
          <mxGeometry y="46.60666666666665" width="45.2212389380531" height="23.303333333333324" as="geometry" />
        </mxCell>
        <mxCell id="oA1RwpsSXMLqQ9cNHt5I-22" value="" style="rounded=0;whiteSpace=wrap;html=1;" parent="oA1RwpsSXMLqQ9cNHt5I-18" vertex="1">
          <mxGeometry y="69.90999999999998" width="45.2212389380531" height="23.303333333333324" as="geometry" />
        </mxCell>
        <mxCell id="oA1RwpsSXMLqQ9cNHt5I-23" value="" style="rounded=0;whiteSpace=wrap;html=1;" parent="oA1RwpsSXMLqQ9cNHt5I-18" vertex="1">
          <mxGeometry y="93.2133333333333" width="45.2212389380531" height="23.303333333333324" as="geometry" />
        </mxCell>
        <mxCell id="oA1RwpsSXMLqQ9cNHt5I-24" value="" style="group" parent="oA1RwpsSXMLqQ9cNHt5I-18" vertex="1" connectable="0">
          <mxGeometry x="6.460176991150443" y="7.767777777777774" width="45.2212389380531" height="116.51666666666661" as="geometry" />
        </mxCell>
        <mxCell id="oA1RwpsSXMLqQ9cNHt5I-25" value="" style="rounded=0;whiteSpace=wrap;html=1;" parent="oA1RwpsSXMLqQ9cNHt5I-24" vertex="1">
          <mxGeometry width="45.2212389380531" height="23.30333333333332" as="geometry" />
        </mxCell>
        <mxCell id="oA1RwpsSXMLqQ9cNHt5I-26" value="" style="rounded=0;whiteSpace=wrap;html=1;" parent="oA1RwpsSXMLqQ9cNHt5I-24" vertex="1">
          <mxGeometry y="23.30333333333332" width="45.2212389380531" height="23.30333333333332" as="geometry" />
        </mxCell>
        <mxCell id="oA1RwpsSXMLqQ9cNHt5I-27" value="" style="rounded=0;whiteSpace=wrap;html=1;" parent="oA1RwpsSXMLqQ9cNHt5I-24" vertex="1">
          <mxGeometry y="46.60666666666664" width="45.2212389380531" height="23.30333333333332" as="geometry" />
        </mxCell>
        <mxCell id="oA1RwpsSXMLqQ9cNHt5I-28" value="" style="rounded=0;whiteSpace=wrap;html=1;" parent="oA1RwpsSXMLqQ9cNHt5I-24" vertex="1">
          <mxGeometry y="69.90999999999997" width="45.2212389380531" height="23.30333333333332" as="geometry" />
        </mxCell>
        <mxCell id="oA1RwpsSXMLqQ9cNHt5I-29" value="" style="rounded=0;whiteSpace=wrap;html=1;" parent="oA1RwpsSXMLqQ9cNHt5I-24" vertex="1">
          <mxGeometry y="93.21333333333328" width="45.2212389380531" height="23.30333333333332" as="geometry" />
        </mxCell>
        <mxCell id="oA1RwpsSXMLqQ9cNHt5I-30" value="" style="group" parent="oA1RwpsSXMLqQ9cNHt5I-17" vertex="1" connectable="0">
          <mxGeometry x="12.920353982300886" y="15.535555555555549" width="51.035398230088504" height="124.28444444444439" as="geometry" />
        </mxCell>
        <mxCell id="oA1RwpsSXMLqQ9cNHt5I-31" value="" style="rounded=0;whiteSpace=wrap;html=1;" parent="oA1RwpsSXMLqQ9cNHt5I-30" vertex="1">
          <mxGeometry width="45.221238938053105" height="23.303333333333324" as="geometry" />
        </mxCell>
        <mxCell id="oA1RwpsSXMLqQ9cNHt5I-32" value="" style="rounded=0;whiteSpace=wrap;html=1;" parent="oA1RwpsSXMLqQ9cNHt5I-30" vertex="1">
          <mxGeometry y="23.303333333333324" width="45.221238938053105" height="23.303333333333324" as="geometry" />
        </mxCell>
        <mxCell id="oA1RwpsSXMLqQ9cNHt5I-33" value="" style="rounded=0;whiteSpace=wrap;html=1;" parent="oA1RwpsSXMLqQ9cNHt5I-30" vertex="1">
          <mxGeometry y="46.60666666666665" width="45.221238938053105" height="23.303333333333324" as="geometry" />
        </mxCell>
        <mxCell id="oA1RwpsSXMLqQ9cNHt5I-34" value="" style="rounded=0;whiteSpace=wrap;html=1;" parent="oA1RwpsSXMLqQ9cNHt5I-30" vertex="1">
          <mxGeometry y="69.90999999999998" width="45.221238938053105" height="23.303333333333324" as="geometry" />
        </mxCell>
        <mxCell id="oA1RwpsSXMLqQ9cNHt5I-35" value="" style="rounded=0;whiteSpace=wrap;html=1;" parent="oA1RwpsSXMLqQ9cNHt5I-30" vertex="1">
          <mxGeometry y="93.2133333333333" width="45.221238938053105" height="23.303333333333324" as="geometry" />
        </mxCell>
        <mxCell id="oA1RwpsSXMLqQ9cNHt5I-36" value="" style="group" parent="oA1RwpsSXMLqQ9cNHt5I-30" vertex="1" connectable="0">
          <mxGeometry x="5.8141592920353995" y="7.767777777777774" width="45.221238938053105" height="116.51666666666661" as="geometry" />
        </mxCell>
        <mxCell id="oA1RwpsSXMLqQ9cNHt5I-37" value="" style="rounded=0;whiteSpace=wrap;html=1;" parent="oA1RwpsSXMLqQ9cNHt5I-36" vertex="1">
          <mxGeometry width="45.221238938053105" height="23.30333333333332" as="geometry" />
        </mxCell>
        <mxCell id="oA1RwpsSXMLqQ9cNHt5I-38" value="" style="rounded=0;whiteSpace=wrap;html=1;" parent="oA1RwpsSXMLqQ9cNHt5I-36" vertex="1">
          <mxGeometry y="23.30333333333332" width="45.221238938053105" height="23.30333333333332" as="geometry" />
        </mxCell>
        <mxCell id="oA1RwpsSXMLqQ9cNHt5I-39" value="" style="rounded=0;whiteSpace=wrap;html=1;" parent="oA1RwpsSXMLqQ9cNHt5I-36" vertex="1">
          <mxGeometry y="46.60666666666664" width="45.221238938053105" height="23.30333333333332" as="geometry" />
        </mxCell>
        <mxCell id="oA1RwpsSXMLqQ9cNHt5I-40" value="" style="rounded=0;whiteSpace=wrap;html=1;" parent="oA1RwpsSXMLqQ9cNHt5I-36" vertex="1">
          <mxGeometry y="69.90999999999997" width="45.221238938053105" height="23.30333333333332" as="geometry" />
        </mxCell>
        <mxCell id="oA1RwpsSXMLqQ9cNHt5I-41" value="" style="rounded=0;whiteSpace=wrap;html=1;" parent="oA1RwpsSXMLqQ9cNHt5I-36" vertex="1">
          <mxGeometry y="93.21333333333328" width="45.221238938053105" height="23.30333333333332" as="geometry" />
        </mxCell>
        <mxCell id="oA1RwpsSXMLqQ9cNHt5I-42" value="" style="rounded=0;whiteSpace=wrap;html=1;" parent="oA1RwpsSXMLqQ9cNHt5I-63" vertex="1">
          <mxGeometry x="87.21238938053098" y="50.10216666666661" width="45.2212389380531" height="23.303333333333317" as="geometry" />
        </mxCell>
        <mxCell id="oA1RwpsSXMLqQ9cNHt5I-43" value="" style="rounded=0;whiteSpace=wrap;html=1;" parent="oA1RwpsSXMLqQ9cNHt5I-63" vertex="1">
          <mxGeometry x="93.67256637168141" y="56.3163888888889" width="45.2212389380531" height="23.303333333333317" as="geometry" />
        </mxCell>
      </root>
    </mxGraphModel>
  </diagram>
</mxfile>
